<?xml version="1.0" encoding="utf-8"?>
<!-- Generator: Adobe Illustrator 21.0.0, SVG Export Plug-In . SVG Version: 6.00 Build 0)  -->
<svg version="1.1" id="Layer_1" xmlns="http://www.w3.org/2000/svg" xmlns:xlink="http://www.w3.org/1999/xlink" x="0px" y="0px"
	 viewBox="0 0 1586.5 1200" style="enable-background:new 0 0 1586.5 1200;" xml:space="preserve">
<style type="text/css">
	.st0{fill:#FFFFFF;}
	.st1{fill:#01013A;}
	.st2{clip-path:url(#SVGID_2_);fill:url(#SVGID_3_);}
	.st3{clip-path:url(#SVGID_5_);fill:url(#SVGID_6_);}
</style>
<rect class="st0" width="1586.5" height="1200"/>
<g>
	<path class="st1" d="M543.8,532.8l3.7,91l31.1-60.9l-1.9-30h31.3l6.1,88.4l40-88.4h39.2l-63.6,132h-45.2l-2.4-42.2l-20.6,42.2
		h-19.1c-7.3,0-13.6-2.5-18.9-7.4c-5.3-5-8.2-11.2-8.8-18.8l-6.3-105.7H543.8z"/>
	<path class="st1" d="M714.7,664.3c-9.5-0.6-16.6-2.7-21.5-6.4c-4.9-3.7-8.5-8.6-11-14.9c-5.4-13.5-4.2-28.9,3.5-46.1
		c10.4-19.6,27.5-30.2,51.1-31.6h32.4c10,0.7,16.5,3.6,19.7,8.8c3.2,5.2,3.9,11,2.3,17.5l-0.2,1l-8.7,35.6h-58.1
		c-3.2-0.5-4.8-2.8-4.9-7.1c-0.1-4.3,1.3-8.6,4.1-13c2.8-4.4,6.9-6.8,12.2-7.2H747h10.4l2.1-8.2H759h-19.8h-0.1
		c-7.8,0.3-14.2,2.4-19,6.6c-4.8,3.8-8,8.5-9.5,14.1c-3.8,14.9,0.7,22.6,13.5,23.1h15h41.3l-6.8,28.4L714.7,664.3z"/>
	<path class="st1" d="M832.4,664.3c-9.5-0.6-16.6-2.7-21.5-6.4c-4.9-3.7-8.5-8.6-11-14.9c-5.4-13.5-4.2-28.9,3.5-46.1
		c10.4-19.6,27.5-30.2,51.1-31.6h56.7l-24,99.3L832.4,664.3z M870.4,603.1L870.4,603.1l2.3-10.5h-15.2c-8.2,0.1-14.7,2.3-19.7,6.6
		c-4.8,3.8-8,8.5-9.5,14.1c-4.4,15.2,0.1,22.9,13.5,23.1h20.5L870.4,603.1z"/>
	<path class="st1" d="M938.6,636.2h19.5l31.7-70.5h34.1l-35.1,81c-3.5,5.5-7.3,9.5-11.4,12c-4.2,2.5-7.9,4.2-11.1,4.9
		c-3.2,0.7-4.9,1.1-5.2,1.1h-60.5l24.4-99.5h31.5L938.6,636.2z"/>
	<path class="st1" d="M1053.5,664.3c-9.5-0.6-16.6-2.7-21.5-6.4c-4.9-3.7-8.5-8.6-11-14.9c-5.4-13.5-4.2-28.9,3.5-46.1
		c10.4-19.6,27.5-30.2,51.1-31.6h32.4c10,0.7,16.5,3.6,19.7,8.8c3.2,5.2,3.9,11,2.3,17.5l-0.2,1l-8.7,35.6H1063
		c-3.2-0.5-4.8-2.8-4.9-7.1c-0.1-4.3,1.3-8.6,4.1-13c2.8-4.4,6.9-6.8,12.2-7.2h11.4h10.4l2.1-8.2h-0.4H1078h-0.1
		c-7.8,0.3-14.2,2.4-19,6.6c-4.8,3.8-8,8.5-9.5,14.1c-3.8,14.9,0.7,22.6,13.5,23.1h15h41.3l-6.8,28.4L1053.5,664.3z"/>
	<path class="st1" d="M1133.2,642.9c2.9-11.9,6.1-25.2,9.6-39.9c3.5-14.7,6.6-27.5,9.2-38.3c2.6-10.9,4-16.6,4.1-17.2
		c0-0.1,0-0.2,0.1-0.3c1.1-4.3,3.5-7.8,7-10.4c3.6-2.7,7.6-4,11.9-4h13.3h24.5h23.3h10.9h0.3h0.1c9.2,0,16.7,3.4,22.4,10.3
		c5.7,6.8,7.5,14.6,5.6,23.6c-0.5,2-1.6,6.8-3.5,14.6c-1.9,7.8-4,16.4-6.3,25.9c-2.3,9.5-5.2,21.4-8.6,35.8
		c-5.2,14.5-14.6,21.8-28.2,21.8h-18.4h-34.4h-32.9h-15.4C1128.6,662.1,1130.3,654.8,1133.2,642.9 M1229.8,621.7
		c1.7-6.8,3.5-14.4,5.5-22.7c2-8.3,4.6-18.8,7.6-31.3c0.2-1.2-0.1-2.3-0.9-3.2c-0.8-0.9-1.8-1.4-2.9-1.4H1229h-18.3h-17.4h-8.1
		c-0.5,1.8-1.6,6.4-3.3,13.7c-1.8,7.3-3.7,15.4-5.9,24.3c-2.2,8.9-4.9,20.1-8.2,33.5h11.1h20h18.9h8.8
		C1227.1,632.8,1228.1,628.5,1229.8,621.7"/>
	<path class="st1" d="M1321.3,532.8h64.5c9.2,0,16.6,3.4,22.3,10.3c5.7,6.8,7.7,14.6,5.8,23.6c0,0.1-0.2,1.1-0.5,2.9
		c-0.4,1.8-0.8,3.9-1.4,6.3c-0.6,2.4-1.2,4.7-1.9,6.9c-0.7,2.2-1.4,3.8-2,4.9c-2.2,3.6-5,6.5-8.5,8.7c-3.4,2.2-6.3,3.7-8.6,4.3
		c0.2,0,0.6,0.2,1.2,0.7c0.6,0.5,1.2,1,1.8,1.6c0.6,0.6,1.1,1,1.3,1.4c4.8,6.5,6.4,13.6,4.8,21.3v0.2c-0.1,0.7-0.5,2.2-1.1,4.5
		c-0.6,2.4-1.2,4.8-1.8,7.3c-0.6,2.5-1.1,4.2-1.4,5.2c-5.2,14.5-14.6,21.8-28.2,21.8h-15.4h-32.9H1285h-18.3
		c5-20.9,9.2-38.3,12.5-52.1c3.3-13.8,6.3-26.3,9-37.5c2.7-11.2,4.4-18.1,4.9-20.5C1298.4,540,1307.7,532.8,1321.3,532.8
		 M1306.3,634.5h55.7c0.7,0,1.2-0.2,1.7-0.7c0.5-0.5,0.9-1,1.2-1.6c0.3-0.6,0.5-0.9,0.5-1.1c0.1-0.1,0.1-0.3,0.2-0.8
		c0.1-0.5,0.2-1.1,0.4-1.8c0.2-0.7,0.4-1.3,0.5-1.9c0.1-0.6,0.2-1,0.3-1.4c0.7-2.9,0.1-5.4-1.8-7.7c-1.8-2.2-4.2-3.3-7.4-3.3h-0.3
		h-7h-14.9h-15.6h-8.7c-0.9,3.7-1.7,6.7-2.3,9.2c-0.6,2.5-1.1,4.8-1.7,6.9C1306.8,632.3,1306.4,633.8,1306.3,634.5 M1322.4,566.2
		l-3.9,17.1h7.6h16.4h17.3h9.5c2.2,0,4.2-0.6,5.9-1.9c1.7-1.2,2.8-2.9,3.3-5c0.5-1.6,0.8-2.9,1.1-3.9c0.3-1,0.6-2,0.8-3
		c0.3-0.9,0.4-1.6,0.5-2c0.2-1.2-0.1-2.3-0.9-3.2c-0.8-0.9-1.8-1.4-2.9-1.4h-7.6h-16.4h-17.3h-9.6c-0.7,0-1.5,0.3-2.3,0.9
		C1323.2,564.4,1322.7,565.2,1322.4,566.2"/>
	<g>
		<defs>
			<path id="SVGID_1_" d="M414.7,599.9c0,11.7,9.5,21.2,21.2,21.2s21.2-9.5,21.2-21.2c0-11.7-9.5-21.2-21.2-21.2
				S414.7,588.2,414.7,599.9"/>
		</defs>
		<clipPath id="SVGID_2_">
			<use xlink:href="#SVGID_1_"  style="overflow:visible;"/>
		</clipPath>
		
			<linearGradient id="SVGID_3_" gradientUnits="userSpaceOnUse" x1="-239.5931" y1="1199.7754" x2="-237.3384" y2="1199.7754" gradientTransform="matrix(-167.6497 32.9223 32.9223 167.6497 -79154.25 -192669.25)">
			<stop  offset="0" style="stop-color:#FF177C"/>
			<stop  offset="1" style="stop-color:#FF0000"/>
		</linearGradient>
		<polygon class="st2" points="465.1,619.5 416.3,629.1 406.7,580.3 455.5,570.7 		"/>
	</g>
	<g>
		<defs>
			<path id="SVGID_4_" d="M270.2,461.1c-11.7,0-21.2,9.5-21.2,21.2s9.5,21.2,21.2,21.2h6.9c4.6,0,8.2,3.7,8.2,8.2
				c0,4.6-3.7,8.2-8.2,8.2h-70.8c-11.7,0-21.2,9.5-21.2,21.2c0,11.7,9.5,21.2,21.2,21.2h115.8c4.6,0,8.2,3.8,8.2,8.4
				c0,3.8-2.6,7-6.2,7.9h-131c-11.7,0-21.2,9.5-21.2,21.2c0,11.7,9.5,21.2,21.2,21.2h55.4c4,0.6,7,4,7,8.1c0,4.6-3.7,8.4-8.2,8.4
				h-40.5c-11.7,0-21.2,9.5-21.2,21.2c0,11.7,9.5,21.2,21.2,21.2h113c4.6,0,8.2,3.7,8.2,8.2c0,4.6-3.7,8.2-8.2,8.2h-7
				c-11.7,0-21.2,9.5-21.2,21.2s9.5,21.2,21.2,21.2h47.4c11.7,0,21.2-9.5,21.2-21.2s-9.5-21.2-21.2-21.2h-6.9
				c-4.6,0-8.2-3.7-8.2-8.2c0-4.6,3.7-8.2,8.2-8.2h70.8c11.7,0,21.2-9.5,21.2-21.2c0-11.7-9.5-21.2-21.2-21.2H280.9
				c-4.6,0-8.2-3.8-8.2-8.4c0-4.1,3.1-7.5,7-8.1h91.1c11.7,0,21.2-9.5,21.2-21.2c0-11.7-9.5-21.2-21.2-21.2h-17.2
				c-3.5-0.9-6.2-4.1-6.2-7.9c0-4.5,3.7-8.4,8.2-8.4h68c11.7,0,21.2-9.5,21.2-21.2c0-11.7-9.5-21.2-21.2-21.2h-113
				c-4.6,0-8.2-3.7-8.2-8.2c0-4.6,3.7-8.2,8.2-8.2h31.7c11.7,0,21.2-9.5,21.2-21.2s-9.5-21.2-21.2-21.2H270.2z"/>
		</defs>
		<clipPath id="SVGID_5_">
			<use xlink:href="#SVGID_4_"  style="overflow:visible;"/>
		</clipPath>
		
			<linearGradient id="SVGID_6_" gradientUnits="userSpaceOnUse" x1="-239.5931" y1="1199.6926" x2="-237.3384" y2="1199.6926" gradientTransform="matrix(-167.6512 32.9225 32.9225 167.6512 -79156.9141 -192681.0156)">
			<stop  offset="0" style="stop-color:#FF177C"/>
			<stop  offset="1" style="stop-color:#FF0000"/>
		</linearGradient>
		<polygon class="st3" points="497.8,728.6 182.1,790.6 119.5,471.4 435.2,409.4 		"/>
	</g>
</g>
</svg>
