<svg viewBox="0 0 59 16" fill="none" xmlns="http://www.w3.org/2000/svg">
<path d="M4.6 2.98C4.6 1.86 4.84 1.74 6.28 1.56V0.96H0.56V1.56C2 1.74 2.24 1.86 2.24 2.98V12.98C2.24 14.1 2 14.22 0.56 14.4V15H6.28V14.4C4.84 14.22 4.6 14.1 4.6 12.98V8.18H11.16V12.98C11.16 14.1 10.92 14.22 9.48 14.4V15H15.2V14.4C13.76 14.22 13.52 14.1 13.52 12.98V2.98C13.52 1.86 13.76 1.74 15.2 1.56V0.96H9.48V1.56C10.92 1.74 11.16 1.86 11.16 2.98V7.36H4.6V2.98ZM20.4436 13.84C19.3236 13.84 18.7836 13.1 18.7836 12.02C18.7836 10.94 19.3236 10.42 20.2636 10.06L22.3636 9.2V12.96C21.6636 13.52 21.1436 13.84 20.4436 13.84ZM24.6036 7.48C24.6036 5.28 23.3436 4.32 20.9436 4.32C18.8436 4.32 17.2036 5.18 17.2036 6.76C17.2036 7.36 17.5236 7.76 18.0436 7.92L19.3636 7.74C19.2636 7.32 19.2036 6.98 19.2036 6.62C19.2036 5.62 19.6436 4.88 20.7036 4.88C21.9036 4.88 22.3636 5.8 22.3636 7.06V8.58L19.4236 9.66C17.8636 10.24 16.6236 10.94 16.6236 12.64C16.6236 14.18 17.6436 15.18 19.2436 15.18C20.6436 15.18 21.7236 14.24 22.4036 13.42C22.5636 14.52 23.1836 15.2 24.2236 15.2C25.0636 15.2 25.7836 14.84 26.3036 14.14L26.1836 13.78C25.9236 13.9 25.6436 14 25.3236 14C24.7636 14 24.6036 13.58 24.6036 12.78V7.48ZM34.7808 13.48C34.7808 14.22 34.4608 14.36 33.4608 14.42V15H38.3408V14.42C37.3408 14.36 37.0208 14.22 37.0208 13.48V7.54C37.0208 5.38 36.1008 4.32 34.2408 4.32C32.6408 4.32 31.4808 5.22 30.5808 6.24L30.6608 4.32H30.3208L27.0808 5.36V5.64L28.3408 6.34V13.48C28.3408 14.22 28.0208 14.36 27.0208 14.42V15H31.8808V14.42C30.9008 14.36 30.5808 14.22 30.5808 13.48V6.74C31.2808 6.18 32.1608 5.7 33.1008 5.7C34.2408 5.7 34.7808 6.3 34.7808 7.64V13.48ZM43.2739 15.2C45.5739 15.2 47.0939 14 47.0939 11.98C47.0939 10.16 45.8739 9.34 43.8339 8.6C42.1539 7.98 41.5339 7.5 41.5339 6.5C41.5339 5.58 42.1339 4.94 43.2339 4.94C44.6739 4.94 45.4939 6.1 45.8539 7.58H46.4339V5.16C45.5939 4.64 44.5539 4.32 43.2939 4.32C41.1939 4.32 39.8139 5.44 39.8139 7.3C39.8139 9.06 40.8339 9.84 42.8939 10.6C44.5939 11.24 45.3339 11.7 45.3339 12.82C45.3339 14 44.4539 14.58 43.3139 14.58C41.7739 14.58 40.7939 13.24 40.3139 11.46H39.6739L39.7939 14.22C40.5739 14.8 41.8339 15.2 43.2739 15.2ZM52.5616 13.84C51.4416 13.84 50.9016 13.1 50.9016 12.02C50.9016 10.94 51.4416 10.42 52.3816 10.06L54.4816 9.2V12.96C53.7816 13.52 53.2616 13.84 52.5616 13.84ZM56.7216 7.48C56.7216 5.28 55.4616 4.32 53.0616 4.32C50.9616 4.32 49.3216 5.18 49.3216 6.76C49.3216 7.36 49.6416 7.76 50.1616 7.92L51.4816 7.74C51.3816 7.32 51.3216 6.98 51.3216 6.62C51.3216 5.62 51.7616 4.88 52.8216 4.88C54.0216 4.88 54.4816 5.8 54.4816 7.06V8.58L51.5416 9.66C49.9816 10.24 48.7416 10.94 48.7416 12.64C48.7416 14.18 49.7616 15.18 51.3616 15.18C52.7616 15.18 53.8416 14.24 54.5216 13.42C54.6816 14.52 55.3016 15.2 56.3416 15.2C57.1816 15.2 57.9016 14.84 58.4216 14.14L58.3016 13.78C58.0416 13.9 57.7616 14 57.4416 14C56.8816 14 56.7216 13.58 56.7216 12.78V7.48Z" fill="black"/>
</svg>
