<svg width="7986" height="1438" viewBox="0 0 7986 1438" fill="none" xmlns="http://www.w3.org/2000/svg">
<path d="M2496.79 383.576L2643.77 382.352L2826.27 1062.15L3017.35 383.576H3150.86L3335.81 1062.15L3520.76 383.576H3664.07L3419.1 1240.97H3253.75L3078.59 610.174L2907.11 1240.97H2741.76L2496.79 383.576Z" fill="#5137C5"/>
<path d="M3735.5 759.607C3761.22 710.612 3796.74 673.867 3843.28 646.92C3889.83 619.973 3942.5 606.5 4002.51 606.5C4062.53 606.5 4115.2 618.748 4161.74 643.245C4208.29 667.743 4243.81 703.263 4270.76 747.358C4297.7 792.678 4311.18 845.346 4312.4 905.364C4312.4 922.512 4311.18 938.435 4308.73 955.583H3835.93V962.932C3838.38 1018.05 3855.53 1060.92 3887.38 1092.77C3918 1124.61 3959.64 1140.54 4011.09 1140.54C4051.51 1140.54 4085.8 1131.96 4113.98 1112.36C4140.92 1092.77 4159.29 1065.82 4169.09 1030.3H4301.38C4289.13 1093.99 4258.51 1146.66 4208.29 1187.08C4158.07 1228.73 4095.6 1248.32 4020.89 1248.32C3954.74 1248.32 3898.4 1236.07 3849.41 1209.13C3800.41 1182.18 3763.67 1145.44 3736.72 1096.44C3709.77 1048.67 3697.53 992.329 3697.53 928.636C3697.53 864.944 3709.77 808.601 3735.5 759.607ZM4177.67 858.82C4171.54 813.5 4153.17 777.979 4122.55 752.257C4091.93 726.535 4053.96 713.062 4007.41 713.062C3963.32 713.062 3926.57 726.535 3894.73 753.482C3862.88 780.429 3845.73 814.725 3840.83 858.82H4177.67Z" fill="#5137C5"/>
<path d="M5044.02 1125.84V1240.97H4974.21C4932.56 1240.97 4903.16 1232.4 4886.02 1215.25C4867.64 1198.1 4859.07 1173.61 4859.07 1140.54C4811.3 1212.8 4742.71 1248.32 4652.07 1248.32C4581.03 1248.32 4524.68 1232.4 4483.04 1199.33C4440.17 1167.48 4419.35 1122.16 4419.35 1064.6C4419.35 1000.9 4441.39 950.684 4487.94 916.388C4533.26 882.092 4599.4 863.719 4687.59 863.719H4845.6V825.749C4845.6 791.453 4833.35 763.281 4808.85 743.683C4784.35 724.086 4750.06 713.062 4707.19 713.062C4667.99 713.062 4636.15 721.636 4611.65 738.784C4587.15 755.932 4572.45 777.979 4567.55 804.926H4437.72C4443.84 742.459 4472.02 693.464 4521.01 659.169C4570 624.873 4633.7 606.5 4713.31 606.5C4796.6 606.5 4861.52 626.097 4908.06 665.293C4953.38 704.488 4976.66 760.831 4976.66 834.323V1081.74C4976.66 1111.14 4990.13 1125.84 5018.3 1125.84H5044.02ZM4845.6 961.707H4681.47C4639.82 961.707 4609.2 970.281 4587.15 986.204C4565.1 1002.13 4554.08 1025.4 4554.08 1056.02C4554.08 1082.97 4563.88 1105.02 4584.7 1120.94C4605.52 1138.09 4633.7 1145.44 4670.44 1145.44C4724.34 1145.44 4767.21 1130.74 4797.83 1101.34C4828.45 1071.94 4844.37 1032.75 4845.6 983.755V961.707Z" fill="#5137C5"/>
<path d="M5058.97 613.849H5201.05L5373.76 1098.89L5544.01 613.849H5683.64L5452.15 1240.97H5290.47L5058.97 613.849Z" fill="#5137C5"/>
<path d="M5765.88 759.607C5791.6 710.612 5827.12 673.867 5873.67 646.92C5920.21 619.973 5972.88 606.5 6032.9 606.5C6092.92 606.5 6145.59 618.748 6192.13 643.245C6238.68 667.743 6274.2 703.263 6301.14 747.358C6328.09 792.678 6341.56 845.346 6342.79 905.364C6342.79 922.512 6341.56 938.435 6339.11 955.583H5866.32V962.932C5868.77 1018.05 5885.92 1060.92 5917.76 1092.77C5948.39 1124.61 5990.03 1140.54 6041.47 1140.54C6081.89 1140.54 6116.19 1131.96 6144.36 1112.36C6171.31 1092.77 6189.68 1065.82 6199.48 1030.3H6331.76C6319.52 1093.99 6288.89 1146.66 6238.68 1187.08C6188.46 1228.73 6125.99 1248.32 6051.27 1248.32C5985.13 1248.32 5928.79 1236.07 5879.79 1209.13C5830.8 1182.18 5794.05 1145.44 5767.11 1096.44C5740.16 1048.67 5727.91 992.329 5727.91 928.636C5727.91 864.944 5740.16 808.601 5765.88 759.607ZM6208.05 858.82C6201.93 813.5 6183.56 777.979 6152.94 752.257C6122.31 726.535 6084.34 713.062 6037.8 713.062C5993.7 713.062 5956.96 726.535 5925.11 753.482C5893.27 780.429 5876.12 814.725 5871.22 858.82H6208.05Z" fill="#5137C5"/>
<path d="M6487.7 383.576H6760.85C6847.81 383.576 6923.75 401.949 6989.89 437.47C7054.81 474.216 7105.03 524.435 7140.55 588.127C7174.85 653.044 7193.22 727.76 7193.22 812.275C7193.22 896.79 7174.85 971.506 7140.55 1036.42C7105.03 1101.34 7054.81 1151.56 6989.89 1187.08C6923.75 1223.83 6847.81 1240.97 6760.85 1240.97H6487.7V383.576ZM6760.85 1118.49C6852.71 1118.49 6923.75 1091.54 6973.97 1036.42C7022.96 981.305 7048.69 906.589 7048.69 812.275C7048.69 719.186 7022.96 644.47 6973.97 589.352C6923.75 534.233 6852.71 506.062 6760.85 506.062H6628.56V1118.49H6760.85Z" fill="#5137C5"/>
<path d="M7655.92 383.576C7749.01 383.576 7822.5 403.174 7873.94 442.369C7925.39 481.565 7952.33 536.683 7952.33 606.5C7952.33 657.944 7937.63 700.814 7910.69 733.885C7883.74 766.956 7844.54 789.003 7793.1 800.027C7920.49 822.074 7985.4 889.441 7985.4 1002.13C7985.4 1076.84 7957.23 1135.64 7902.11 1177.28C7846.99 1220.15 7768.6 1240.97 7666.94 1240.97H7341.13V383.576H7655.92ZM7481.99 747.358H7659.59C7707.36 747.358 7744.11 736.334 7771.05 714.287C7798 692.24 7811.47 662.843 7811.47 623.648C7811.47 585.677 7798 556.281 7771.05 534.233C7744.11 512.186 7707.36 501.162 7659.59 501.162H7481.99V747.358ZM7481.99 1122.16H7668.17C7723.28 1122.16 7766.15 1111.14 7795.55 1089.09C7824.95 1067.04 7840.87 1035.2 7840.87 994.778C7840.87 953.133 7824.95 921.287 7795.55 898.015C7764.93 875.968 7722.06 863.719 7668.17 863.719H7481.99V1122.16Z" fill="#5137C5"/>
<rect x="0.398438" y="315.071" width="444.433" height="444.433" transform="rotate(-45 0.398438 315.071)" fill="#9C89F6"/>
<rect x="404.446" y="719.12" width="444.433" height="444.433" transform="rotate(-45 404.446 719.12)" fill="#9C89F6"/>
<rect x="808.499" y="315.071" width="444.433" height="444.433" transform="rotate(-45 808.499 315.071)" fill="#9C89F6"/>
<rect x="808.499" y="1123.17" width="444.433" height="444.433" transform="rotate(-45 808.499 1123.17)" fill="#5137C5"/>
<rect x="1212.55" y="719.12" width="444.433" height="444.433" transform="rotate(-45 1212.55 719.12)" fill="#5137C5"/>
<rect x="1616.6" y="315.071" width="444.433" height="444.433" transform="rotate(-45 1616.6 315.071)" fill="#5137C5"/>
</svg>
